<?xml version="1.0" encoding="UTF-8"?>
<svg version="1.1" viewBox="451 250 1157 838" preserveAspectRatio="xMidYMid meet" xmlns="http://www.w3.org/2000/svg">
<path transform="translate(23)" d="m0 0h2025v1350h-2025z" fill="none"/>
<path transform="translate(1486,332)" d="m0 0h21l13 5 9 5 12 11 8 14 3 13v8l-2 11-5 10-9 10-16 13-4 8-5 21-6 10-6 4-5 2h-8l-1 12-4 17-8 22-10 19-6 8-2 2-5-1-2-2 1-9 7-15 8-20 6-25 1-13-1-3-3-1-6-9-4 1-5-1-8 7-3 1-1 3-6 3h-2v2l-3 1-6-3 4-6-19 13-13 10-14 10-21 16-36 26-13 10-19 14-18 14-11 8-15 11h-2l-5-10-8-10-10-7 4-4 16-12 19-14 14-11 13-10 9-7 15-12 17-13 14-11 17-13 15-12 11-8 1-2-5-1v-4l6-3 4-1-1-3-4 1-2 2-4 1-3 3v-3l11-9 20-16 14-11 1-1 2-13 4-9 4-5 11-8h2v-2l4-4h2l2-5 9-9h2v-2l12-7z" fill="#351811"/>
<path transform="translate(1294,396)" d="m0 0 5 2 4 2v2l5 2 4 1v2l3-2-2-4h-2l-1-4 4 2 12 12 11 9 17 17 7 11 4-2 4-3h2v-2l5-4h4l2-3 5-2 4-2 3 2-1 5-1-2-7 3-2 1v2l5 2-1 3-16 12-16 13-12 9-14 11-13 10-28 22-26 20-28 21-10 7 3 3 9 7 7 10 3 6v2l8-5h6l-4 7-4 2v2l-3 1-2 4-2 14-4 5-4 2-5 5h-7l-6 5h-2l1 6-8 7-2 1 1 4 1 2h-2v3l5 2 14 9 4 5 2 6-1 9-6 8-6 4-3 1h-10l-8-4-18-13-4-3-5 1-17 12-7 6-5 13-4 6-5 5-9 6-8 3h-14l-11-4-8-6-6-8-3-14 1-11 3-9-6-2-5-4-2-4v-14l3-7 5-5 17-13 19-14 9-7 16-12 10-8h3v-2l4-1v-2l9-6 19-14 14-9 3-1h8l9 1 7-6 17-13 18-14 26-20 14-11 16-12 15-12h2v-2l16-12-1-5-12-17-9-10-22-22-3-5-4-5z" fill="#20100F"/>
<path transform="translate(1444,400)" d="m0 0 10 1 9 5 6 7 4 10v9l-7 7-19 13-16 12-17 12-11 8-18 13-21 16-18 13-19 14-24 18-19 14-17 13-16 12-5 2-5-10-8-10-10-7 4-4 16-12 19-14 14-11 13-10 9-7 15-12 17-13 14-11 17-13 15-12 13-10 18-14 13-11 17-13z" fill="#3975B6"/>
<path transform="translate(1314,761)" d="m0 0v3l-3 3-3 5-6 7-5 6-5 5-11 12-11 11-8 7-10 9-14 11-17 13-22 14-21 12-27 14-30 13-11 5-15 5-8 3-20 7-22 6-17 5-43 8-24 3-41 3-21 1-6 1 8 4 30 5 10 4 3 3-2 5-3 4h5v1h-25l-39-4-29-4-8-3-1-5 8-4-1-4-1-3-5-1-3-1v-2l-9-2-33-10-22-9-15-9-9-6v-2l-3-1 4-1 9 5 11 4 9 4 11 3 8 3 32 7 36 3 3 1h42l46-4 16-2 30-5 17-4 9-2 30-8 9-2 7-3 17-5 8-3 13-5 11-5 10-4 16-8 25-12 4-3 7-2v-2l8-4h2v-2l5-1v-2l6-3h2v-2l6-2v-2h3v-2h3v-2l6-2v-2l8-5h2v-2l6-4h2v-2l6-4 3-1v-2l8-6 6-5 1-2 5-3 6-7 8-6 5-5z" fill="#8497B5"/>
<path transform="translate(1444,400)" d="m0 0 10 1 6 3 1 4-12 9-9 8-17 13-14 11-10 8-16 13-13 10-18 14-39 30-18 14-12 9-18 13-16 12-12 8-4-1-10-7 4-4 16-12 19-14 14-11 13-10 9-7 15-12 17-13 14-11 17-13 15-12 13-10 18-14 13-11 17-13z" fill="#FCFCFC"/>
<path transform="translate(1294,396)" d="m0 0 5 2 4 2v2l5 2 4 1v2l3-2-2-4h-2l-1-4 4 2 12 12 11 9 17 17 7 11 4-2 4-3h2v-2l5-4h4l2-3 5-2 4-2 3 2-1 5-1-2-7 3-2 1v2l5 2-1 3-16 12-16 13-12 9-14 11-13 10-28 22-26 20-28 21-10 7-4-1v-2l-9-1-3-2 7-2 11-9 12-9 18-14 26-20 14-11 16-12 15-12h2v-2l16-12-1-5-12-17-9-10-22-22-3-5-4-5z" fill="#33150F"/>
<path transform="translate(1230,612)" d="m0 0 4 1v2l5-1-5 5-13 11-17 12-12 10h-2v2l6 2 11-7 9-6 2 4-8 7-2 1 1 4 1 2h-2v3l2 1h-4v5l-5 2v2l5 2 11 7 3 3v5l-6 5-6-1-19-12-10-7-7-4-6-1v7l-11 9-16 12-6 3h-8l-19-9-16-9-11-7-3-3v-5l5 1 23 12 17 9 3 1h8l12-7-1-7-7 4h-2v2l-2 1h-9l-34-17v-2l-5-1-3-1 1-4 1-2h3v-2h3l1-3 3-1 4-4 17-12 4-2 2 1v2l5 2 5 3 1 4-3 1-7-2h-13l-3 10v9l1 2-1 2 5 2 11 7 6 3 10-2 11-7 1-2h2v-2h3v-2l7-4 2-3 5-1v-2l4-2 1-2 5-3 7-3 8-6 11-8h2v-2l4-1v-2l10-7z" fill="#150B0F"/>
<path transform="translate(1502,757)" d="m0 0 5 1 2 2-1 8-6 16-10 19-6 11-9 14-7 10-3 5h-2l-2 5-7 9h-2l-2 4-7 9-29 29h-2l-1 3-11 9-6 5h-2v2l-17 12-17 11-12 7-13 6-5-1-2-3 1-5 9-6 11-7 13-9 11-8 14-11 8-7h2v-2l11-9 20-20 9-11 7-7 12-16 11-15 10-15 5-9 9-16 7-16z" fill="#361911"/>
<path transform="translate(1577,624)" d="m0 0h7l3 3 1 7v14l-3 26-5 24-7 24-10 27-16 33-6 10-6 11-9 13-7 9-6 8h-2l-2 4-8 7-2 1h-7l-1-1v-5l10-14 11-15 8-13 6-9 6-11 8-16 9-20 5-12 11-33 5-22 4-27 2-22z" fill="#381A12"/>
<path transform="translate(1471,681)" d="m0 0h2l4 8 1 5v14l-4 20-7 21-8 17-8 15-14 22-16 21-15 16-6 6h-2v2l-13 10-12 7h-6l-2-5 6-7 11-9 12-12 7-8 12-14 8-11 9-13 13-22 9-19 6-16 8-26z" fill="#361912"/>
<path transform="translate(1206,665)" d="m0 0 7 1 14 9 4 5 2 6-1 9-6 8-6 4-3 1h-10l-8-4-18-13-4-3-5 1-17 12-7 6-5 13-4 6-5 5-9 6-8 3h-14l-11-4-8-6-6-8-3-14 1-11 2-6 5-1 1 4-6 9 1 6-1 7h3l4 6 3 3v2l5 2 9 3 6-2-4-2 11-2 10-4 3 1 1 2 4-1 2-4 3-7 1-12v-3l18-14 8-6 1-7h6l15 9 11 8 12 7 5-1 4-3v-5l-8-6-10-6v-2l4-2z" fill="#150809"/>
<path transform="translate(1491,346)" d="m0 0h14l12 4 10 7 6 9 4 10 1 4v10l-3 9-8 10-12 9-2-1-1-16-3-10-4-8-6-8-5-3v-2l-6-2-10-3-12-2 1-3h2l2-4 10-7 4-2z" fill="#3A74B4"/>
<path transform="translate(1364,521)" d="m0 0h4l1 4-17 12-19 14-16 12-38 28-21 16-6 4v13l-3 6-8 8-13 10-16 12-4-1-1-4 9-7 1-2-1-3 4-4 5-4h7l7-6 5-5 2-14 3-5h3v-2l5-5 2-3-4-2 13-10 48-36 18-13 2 2 4-1 12-7 6-2v-2h3v-2z" fill="#130608"/>
<path transform="translate(1347,461)" d="m0 0 1 3-3 5-10 9-9 7-7 6-16 12-1 2h-2v5l1 3-39 30-28 21-10 7-4-1v-2l-9-1-3-2 7-2 11-9 12-9 18-14 26-20 14-11 16-12 15-12h2v-2l12-9z" fill="#120608"/>
<path transform="translate(1505,509)" d="m0 0h5l2 3v11l-4 16-5 14-7 14-10 16-9 11-13 13-4 2h-6l-2-4 7-8 13-16 4-6 8-14 8-16 5-13 7-22z" fill="#381B14"/>
<path transform="translate(1459,372)" d="m0 0h14l12 4 8 5 5 5 6 9 2 6 1 13-2 9-7 7-5 1-1-13-3-10-6-11-7-7-12-6-3-1h-16v-2l10-7z" fill="#3A71AE"/>
<path transform="translate(1321,425)" d="m0 0 5 1 2 1v2l4 2 2 4h2l11 16 4 7v2h8v-2l7-2 3-5-5 3 1-5 4-6h2v-2l5-4h4l2-3 5-2 4-2 3 2-1 5-1-2-7 3-2 1v2l5 2-1 3-16 12-16 13-12 9-14 11-13 10-14 11-3-2 1-5h2l1-3 9-7 12-9 9-8 10-8 3-3 1-5-12-18-8-10-6-6z" fill="#221212"/>
<path transform="translate(1491,346)" d="m0 0h14l12 4 8 5v2l-26-1 3 9 3 3v4h-8l-14-6-17-3 1-3h2l2-4 10-7 4-2z" fill="#FCFCFC"/>
<path transform="translate(1452,458)" d="m0 0 5 1-5 5-13 10-14 10-18 13-10 7v7l-12-4 1-3 7-2 2-7h-3-3l-1 3-6 3-1 2-5 1 5-5 19-14 18-13 7-5h2l-2 4-1 1 6 3h2v-2l8-4 5-5z" fill="#201111"/>
<path transform="translate(1179,661)" d="m0 0 5 1 33 21 3 3v5l-6 5-6-1-19-12-10-7-10-5 1-3z" fill="#FDFDFD"/>
<path transform="translate(1453,395)" d="m0 0 7 1 6 3 9 10 4 8 1 4 1 16 5-2 4 1h5l2 3-4 2-5 9-5 5-2 4v-4h-2l-1-8 3-8h-2l-1-12h-3v2h-2l-3-12-6-9-4-3-10-4v-2h-5l2-3z" fill="#221211"/>
<path transform="translate(1148,597)" d="m0 0 2 1-5 8-9 8-14 10-10 7-8 5-5 4-4 1-2 4-8 7-6 2-4 2-3 5-2 3h-2l-1 3v-7l4-6 20-15 19-14 9-7 16-12 10-8z" fill="#140608"/>
<path transform="translate(1293,512)" d="m0 0 5 2-5 5-18 14-13 10-28 21-9 6-1-3 1-4 10-7 5-5 11-8 10-9 7-6 7-3 8-7z" fill="#211416"/>
<path transform="translate(1371,663)" d="m0 0 1 3-9 20-12 23-9 14-5 7-1 3-2 1-1 3h-2l-1 4-3 1-1 4h-2l-1 4-3 2-3 5-3 3-3 5-16 16-3 1 2-5 3-4h2l2-4 7-8h2l2-5 9-11 7-9 6-8 1-3h2l2-4 11-16 5-10 10-19z" fill="#160E14"/>
<path transform="translate(1314,761)" d="m0 0v3l-3 3-3 5-6 7-5 6-5 5-11 12-16 16-6-1 2-5 5-6 5-4 1-2 5-3 6-7 8-6 5-5z" fill="#8A9AB6"/>
<path transform="translate(1090,653)" d="m0 0h3v9l3 1v2l5 1 10 7 14 8 5 1v3h-7l-34-17v-2l-5-1-3-1 1-4 1-2h3v-2h3z" fill="#7D8DAA"/>
<path transform="translate(1462,394)" d="m0 0h6l6 4 6 7 5 10 1 4v13l-3 5-3 1-1-17-4-10-7-9-7-6z" fill="#444C63"/>
<path transform="translate(1501,439)" d="m0 0h2l-3 14-3 6-3 3-9 1-2-3v-6l6-7 4-6z" fill="#FBFBFC"/>
<path transform="translate(1459,372)" d="m0 0h14l8 3 1 2-9 4-1 5-5-1-6-2h-16v-2l10-7z" fill="#FCFCFC"/>
<path transform="translate(1479,366)" d="m0 0h7l8 4v2l5 2 7 9-1 2h-3l4 8 3 5-3 4-7-14-3-3v-2l-4-2-7-4 1-5-1-3h-3v-2z" fill="#1F1010"/>
<path transform="translate(1479,428)" d="m0 0h1l1 9 5-2 4 1h5l2 3-4 2-5 9-5 5-2 4v-4h-2l-1-8 3-8h-2z" fill="#1E1010"/>
<path transform="translate(1395,726)" d="m0 0h2l-2 6-12 23-14 23-5 7h-1v-5h2l2-6 3-4 1-3h2l2-5 5-9 8-16 2-5 2-4z" fill="#25171A"/>
<path transform="translate(1116,651)" d="m0 0 5 1 8 4 1 4-3 3-9-3-4-4 1-4z" fill="#F4F5F6"/>
<path transform="translate(1178,648)" d="m0 0h2v2l-14 10-18 14-14 9-3-1 4-1v-2l12-7 2-3h2v-2h3v-2l7-4 2-3 5-1v-2l4-2 1-2z" fill="#AAB5C8"/>
<path transform="translate(1211,680)" d="m0 0 5 2 4 4v5l-6 5-6-1-1-2 5-3v-6z" fill="#FEFDFC"/>
<path transform="translate(1532,418)" d="m0 0m-1 1 1 3-12 10-4 6-3-1 1-5h2v-2l3-3h2v-2l6-5z" fill="#211213"/>
<path transform="translate(1371,663)" d="m0 0 1 3-9 20-10 19h-2l1-5 6-10 8-16z" fill="#110608"/>
<path transform="translate(1379,757)" d="m0 0 2 1-12 20-5 7h-1v-5h2l2-6 3-4 1-3h2l2-5z" fill="#23181B"/>
<path transform="translate(1118,636)" d="m0 0 7 3 5 3 1 4-3 1-9-3v-2l-3-1h2z" fill="#3B70AB"/>
<path transform="translate(1452,458)" d="m0 0 5 1-5 5-10 8-4-1 10-10z" fill="#211517"/>
<path transform="translate(1090,653)" d="m0 0h3v9l3 1 1 3-5-1-5-3v-2l-4-2h3v-2h3z" fill="#7A87A1"/>
<path transform="translate(1330,740)" d="m0 0 1 2-6 9-6 7-1 2-3-1 5-8 3-2 1-3 2-1 1-3z" fill="#A3AEC1"/>
<path transform="translate(1485,400)" d="m0 0 3 4 3 6-1 4-6-4-1-5h2z" fill="#1F0F0E"/>
<path transform="translate(1481,367)" d="m0 0 1 2h3v2l2 1-1 4-9-2 2-1v-4h2z" fill="#341813"/>
<path transform="translate(1178,648)" d="m0 0h2v2l-14 10-8 6-2-1 6-5 1-2 5-1v-2l4-2 1-2z" fill="#B3BDCE"/>
<path transform="translate(1386,743)" d="m0 0 2 2-6 11-3 1 1-4 4-8z" fill="#221415"/>
<path transform="translate(1442,399)" d="m0 0h8v1l-8 2-9 7-1-4 6-4z" fill="#2E2933"/>
<path transform="translate(1391,492)" d="m0 0 1 3h-3l-1 3-6 3-1 2-5 1 5-5z" fill="#1C0D0D"/>
<path transform="translate(1109,640)" d="m0 0 4 2-3 1v2h-2v2l-3 1v-2h-2l1-3z" fill="#5F7BA2"/>
<path transform="translate(1473,430)" d="m0 0 1 3-1 3-3 1-1 2h-2v2l-3 2-4-1 9-7z" fill="#1D0D0D"/>
<path transform="translate(1204,629)" d="m0 0h2v2l-6 4-7 5-2-1 3-1v-3h4v-3z" fill="#D1D6E0"/>
<path transform="translate(1458,383)" d="m0 0h6l1 2-3 3-5-1-2-2z" fill="#231618"/>
<path transform="translate(1339,728)" d="m0 0v3l-6 9h-2v-3h2l1-4h2l1-4z" fill="#909CB2"/>
<path transform="translate(1230,610)" d="m0 0 2 1-10 8-4 1 4-5h2l1-3z" fill="#BDC5D3"/>
<path transform="translate(1399,716)" d="m0 0h2l-1 5-2 5-4-2 2-5 2-1z" fill="#35211A"/>
</svg>
