<?xml version="1.0" encoding="UTF-8"?>
<svg version="1.1" viewBox="451 250 1157 838" preserveAspectRatio="xMidYMid meet" xmlns="http://www.w3.org/2000/svg">
<path transform="translate(23)" d="m0 0h2025v1350h-2025z" fill="none"/>
<path transform="translate(1181,937)" d="m0 0 28 2 41 5 47 8 33 8 24 8 21 10 10 8 5 9v9l-6 9-10 8-19 9-27 9-34 8-33 6-42 6-49 5-44 3-43 2h-112l-46-2-55-4-46-5-39-6-36-7-28-7-21-7-18-8-10-7-5-5-4-5-1-3v-7l4-8 9-8 21-11 27-9 29-7 16 8 18 8v2l-12 6-5 4-2 5 1 5 5 5 15 7 24 6 29 5 40 4 60 4 12 2 6 3 2 4-4 4-12 3-12 1h-22l-34-3-29-4-50-10-38-8-14-1 1 4 16 8 18 6 26 6 26 4 40 4 37 2h75l56-2 64-4 40-4 5-1-23 2-18 1h-56l-4-1v-3l14-3 89-12 49-8 30-7 17-6 6-4v-3h-17l-45 6-9 1h-16l1-3 30-10 9-5 3-3-2-6-12-6-19-5-32-5 2-3 10-4 9-4z" fill="#7E8BA5"/>
<path transform="translate(1171,995)" d="m0 0h6l-2 3-8 1 1-3z" fill="#8192AF"/>
<path transform="translate(1153,951)" d="m0 0 2 1-2 2 1 2h-9l2-3z" fill="#8192B0"/>
<path transform="translate(749,908)" d="m0 0 5 1 3 2 3 5-5-2-3-2v-2l-3-1z" fill="#77839D"/>
</svg>
