<?xml version="1.0" encoding="UTF-8"?>
<svg version="1.1" viewBox="0 0 2048 1410" width="790" height="544" xmlns="http://www.w3.org/2000/svg">
<path transform="translate(23)" d="m0 0h2025v1350h-2025z" fill="none"/>
<path transform="translate(986,270)" d="m0 0h9l6 4 8 16 6 20v3l29-2h47l34 3 24 4 30 7 33 11 23 10 25 13 20 13 12 9 14 11 10 9 10 10 11 9 17 17 7 11 4-2 4-3h2v-2l28-22 11-9 14-11 1-1 2-13 4-9 4-5 11-8h2v-2l4-4h2l2-5 9-9h2v-2l12-7 7-2h21l13 5 9 5 12 11 8 14 3 13v8l-2 11-5 10-9 10-16 13-4 8-5 21-6 10-6 4-5 2h-8l-1 12-4 17-8 22-10 19-6 8-2 2-5-1-2-2 1-9 7-15 8-20 6-25 1-13-1-3-3-1-6-9-5 2-17 13-14 10-18 13-10 7 1 5 10 27 6 20 6 29 2 19v30l-3 23-5 24-6 19-8 21-11 23-13 23-16 24-13 17-6 8h-2l-2 4-9 11-27 27-8 7-7 6h-2v2l-9 7-12 9-19 13-19 12-21 12-20 11 34 3 38 5 41 7 33 8 24 8 21 10 10 8 5 9v9l-6 9-10 8-19 9-27 9-34 8-33 6-42 6-49 5-44 3-43 2h-112l-46-2-55-4-46-5-39-6-36-7-28-7-21-7-18-8-10-7-5-5-4-5-1-3v-7l4-8 9-8 21-11 27-9 28-7-11-7-19-13-11-9-13-12-12-12-11-14-12-19-8-15-10-25-6-21-5-26-6-60v-22l3-31 4-22 6-24 8-23 9-23 7-15 14-26 14-22 9-13 13-17 11-14 9-10 7-8 11-12 39-39 8-7 14-12 10-9 9-7 13-11 12-9 18-14 17-12 16-11 22-14 20-11 22-9z" fill="#FDDC59"/>
<path transform="translate(986,270)" d="m0 0h9l6 4 8 16 6 20v3l29-2h47l34 3 24 4 30 7 33 11 23 10 25 13 20 13 12 9 14 11 10 9 10 10 11 9 17 17 7 11 4-2 4-3h2v-2l28-22 11-9 14-11 1-1 2-13 4-9 4-5 11-8h2v-2l4-4h2l2-5 9-9h2v-2l12-7 7-2h21l13 5 9 5 12 11 8 14 3 13v8l-2 11-5 10-9 10-16 13-4 8-5 21-6 10-6 4-5 2h-8l-1 12-4 17-8 22-10 19-6 8-2 2-5-1-2-2 1-9 7-15 8-20 6-25 1-13-1-3-3-1-6-9-5 2-17 13-14 10-18 13-10 7 1 5 10 27 6 20 6 29 2 19v30l-3 23-5 24-6 19-8 21-11 23-13 23-16 24-13 17-6 8h-2l-2 4-9 11-27 27-8 7-7 6h-2v2l-9 7-12 9-19 13-19 12-21 12-20 11 34 3 38 5 41 7 33 8 24 8 21 10 10 8 5 9v9l-6 9-10 8-19 9-27 9-34 8-33 6-42 6-49 5-44 3-43 2h-112l-46-2-55-4-46-5-39-6-36-7-28-7-21-7-18-8-10-7-5-5-4-5-1-3v-7l4-8 9-8 21-11 27-9 28-7-11-7-19-13-11-9-13-12-12-12-11-14-12-19-8-15-10-25-6-21-5-26-6-60v-22l3-31 4-22 6-24 8-23 9-23 7-15 14-26 14-22 9-13 13-17 11-14 9-10 7-8 11-12 39-39 8-7 14-12 10-9 9-7 13-11 12-9 18-14 17-12 16-11 22-14 20-11 22-9zm-2 16-17 5-16 8-27 15v2l-5 2-19 13-18 13-17 13-16 13-14 11-14 12-10 9-8 7-15 14-26 26-7 8-10 11-11 14-13 16-12 17-15 23-10 17v3h-2l-12 25-11 29-5 16-6 27-4 21-2 22v20l2 21 5 24 7 21 9 20 10 17 9 12 11 13 17 17 14 11 13 9 16 9 23 11 30 10 22 5 33 5 29 2h25l42-3 40-6 36-8 26-7 36-12 31-13 32-15 22-12 26-16 12-8 18-13 17-14 10-9 8-7 21-21 9-11 12-15 12-17 12-19 15-29 10-25 6-20 5-22 3-26v-20l-2-21-2-13-2-1-19 13-13 10-57 42-21 16-11 8v13l-3 6-7 7-13 10-18 13-2 1v3l19 12 4 6 1 9-3 7-4 5-8 4h-10l-8-4-18-13-4-3-5 1-17 12-8 7-5 13-4 6-1 3-4 2-10 6-6 2h-14l-11-4-8-6-5-7-3-14 1-11 2-9-8-4-4-6v-14l3-7 5-5 16-12 19-14 9-7 16-12 10-8 3-1v-2l4-1v-2l5-2 19-14 16-11 5-2h8l9 1 7-6 17-13 18-14 26-20 14-11 16-12 15-12 2-1v-2l4-2 13-10-1-5-12-17-9-10-24-24-10-8-6-4-11-8-10-7-17-10-15-8-24-10-27-9-29-7-32-5-36-3h-40l-34 2-46 5-7 1h-17l-2-2 1-4 10-4 33-6 18-3-1-10-5-14-3-6z" fill="#34160E"/>
<path transform="translate(916,362)" d="m0 0 5 1-1 9 33-1 41 1 62 3 8 1-4 10-8 19-7 15-13 29-24 54-12 28-7 14-8 4h-9l-2-2 1-7 8-17 9-21-38-3-56-4-2 6-17 37-15 33-2 4 36 3 45 4 5 3 2 3v5l-5 6h-20l-67-5h-4l-13 30-20 47-5 12 17 1 82 6 3-9 15-37 10-23 4-3h8l5 5v6l-19 45-14 35-16 41-18 46-14 36-10 23-5 6-7 1-4-2-2-3 1-8 11-29 4-10h-12l-66-7-17-2-5 12-4 6-6 1-5-3-2-2v-9l3-9-11-1-16-3-8-4-1-1 1-7 3-2h11l23 3 4 1 1-6 11-30 18-48h-15l-40-3-5-1-6 43-3 5h-6l-2-2-1-7v-19l1-21h-12l-13-1-5-3-1-1v-7l4-4 3-1h27l1-10 8-37 9-31 5-14h-18l-13-2-5-4 1-5 2-4 5-2 35-1 8-18 8-16 11-21 10-17 2-4h-18l-3-2 1-6 5-5 6-3 5-1 14-1 5-5 8-11 9-11 8-9 5-3h6l1 5-6 12-11 18-3 5h31l27 1 13 1 2-6 18-38 16-33 4-8-22 2-25 6h-5l1-7 7-7 18-13 13-8z" fill="#EB7204"/>
<path transform="translate(1372,522)" d="m0 0 2 1 3 21 1 13v20l-3 26-7 30-10 28-12 25-11 20-8 12-10 14-10 13-12 14-7 8-21 21-11 9-9 8-13 10-14 10-17 11-21 13-32 17-24 11-32 13-33 11-30 8-32 7-40 6-42 3h-25l-29-2-33-5-25-6-27-9-29-14-16-10-16-12-13-12-13-13-11-14-10-15-9-17-9-23-6-23-3-21-1-11v-20l2-22 3-16h1v27l2 20 3 17 5 17 8 21 12 24 14 21 9 11 18 18 17 13 14 9 23 12 27 10 22 6 25 5 23 3 27 2h23l31-2 25-3 28-5 35-8 30-9 25-9 24-10 29-14 21-11 24-15 19-13 16-12 13-11 14-12 25-25 18-22 13-18 11-18 10-18 10-21 10-30 5-21 2-13 1-12-16 10-18 13-7 6-3 3-3 14-10 27-11 24-11 20-10 15-9 12-10 13-11 13-11 12-17 16-14 11-13 10-20 13-22 12-21 8-18 5-22 3h-36l-7 17-6 5-8-1-3-3v-7l5-13h-11l-91-6-3 10-10 24-4 5-7 1-5-3-1-2v-7l13-35 19-50 18-47 22-55 8-19-1-4-6-9-4-10-3-14v-18l4-11 9-10 10-5 4-1h12l10 3 10 7 6 10 3 11v7h2l2 7v8l-3 12-6 9-7 6-11 5-7 2h-6l-3 9-14 33-3 9 22 1 59 3 4 2 2 5-1 6-6 5h-25l-63-3-15 40-13 34-4 10 1 1 67 5 18 1h14l22-60 5-10 5-2 6 1 4 4 1 5-11 31-11 29-2 4h36l17-3 18-6 18-8 15-8 18-12 13-10v-2l-15-8-12-5-10-1-9 5-14 7-10 2-12-1-9-4-8-6-7-10-2-5v-7l5 5 8 6 11 4h14l10-4 8-6h2l8-16 3-7 12-10 12-8 5-1 15 11 12 8 3 1h10l8-4 6-8 1-9-3-8-8-6-13-8v-3l9-6 19-14 13-12 2-5v-13l17-13 57-42 20-15 18-13z" fill="#EB7204"/>
<path transform="translate(1181,937)" d="m0 0 28 2 41 5 47 8 33 8 24 8 21 10 10 8 5 9v9l-6 9-10 8-19 9-27 9-34 8-33 6-42 6-49 5-44 3-43 2h-112l-46-2-55-4-46-5-39-6-36-7-28-7-21-7-18-8-10-7-5-5-4-5-1-3v-7l4-8 9-8 21-11 27-9 29-7 16 8 18 8v2l-12 6-5 4-2 5 1 5 5 5 15 7 24 6 29 5 40 4 60 4 12 2 6 3 2 4-4 4-12 3-12 1h-22l-34-3-29-4-50-10-38-8-14-1 1 4 16 8 18 6 26 6 26 4 40 4 37 2h75l56-2 64-4 40-4 5-1-23 2-18 1h-56l-4-1v-3l14-3 89-12 49-8 30-7 17-6 6-4v-3h-17l-45 6-9 1h-16l1-3 30-10 9-5 3-3-2-6-12-6-19-5-32-5 2-3 10-4 9-4z" fill="#7E8BA5"/>
<path transform="translate(984,286)" d="m0 0h6v3l-16 9-20 12-33 22-18 13-16 12-13 10-12 9-14 11-11 9-13 11-11 9-14 13-8 7-10 9-18 18-18 22-14 21-10 18-12 25-7 18-2 7-2 1-10 29-7 24-6 27-3 21v32l3 23 5 19 8 19 9 15 12 16 7 8 8 7 15 11 16 10 21 11 25 10 26 8 24 5 21 3 34 2 36-1 31-3 28-4 36-8 37-12 26-11 19-10 12-8 12-9 4-4 23-13 19-13 14-11 13-11 16-15 11-12 11-14 10-13 11-16 9-15 9-17 10-23 8-22 4-16 9-7 12-9 21-14h2v12l-4 23-7 24-7 19-12 25-8 14-13 20-13 18-13 15-9 10-22 22-11 9-10 9-16 12-16 11-19 12-15 9-23 12-27 13-36 14-25 8-26 7-44 9-22 3-21 2-20 1h-23l-36-3-31-5-23-6-24-8-18-8-17-9-12-8-13-10-12-11-14-14-11-15-11-18-11-22-8-21-5-19-3-20-1-13v-20l2-18 6-24 9-27 10-24 8-16h2l1-4 10-18 12-18 12-17 11-14 13-16 12-14 16-17 26-26 8-7 12-11 11-9 14-12 14-11 15-12 36-26 15-10h2v-2l11-6 16-9 12-6 16-6z" fill="#FEF2B4"/>
<path transform="translate(1391,545)" d="m0 0 2 2 4 18 4 22 1 8v44l-5 30-7 24-8 22-12 25-13 23-15 22-11 14-9 11-12 14-19 19-10 8-14 12-17 13-18 13-22 13-21 12-19 10-22 10-28 11-24 9-34 10-24 6-26 5-32 4-13 1h-41l-46-5-29-4-8-3-1-5 8-4-1-4-1-3-5-1-3-1v-2l-9-2-33-10-22-9-15-9-9-6v-2l-3-1 4-1 9 5 11 4 9 4 11 3 8 3 32 7 36 3 3 1h42l46-4 16-2 30-5 17-4 9-2 30-8 9-2 7-3 17-5 8-3 13-5 11-5 10-4 16-8 25-12 4-3 7-2v-2l8-4h2v-2l5-1v-2l6-3h2v-2l6-2v-2h3v-2h3v-2l6-2v-2l8-5h2v-2l6-4h2v-2l6-4 3-1v-2l8-6 6-5 1-2 5-3 6-7 8-6 21-21 3-6 3-2 2-4 3-2 1-3 2-1 1-3 3-2 1-3h2l1-4h2l1-4 11-17 9-16 12-25 9-24 7-26 4-22 2-18z" fill="#444C63"/>
<path transform="translate(1372,522)" d="m0 0 2 1 3 21 1 13v20l-3 26-7 30-10 28-12 25-11 20-8 12-10 14-10 13-12 14-7 8-21 21-11 9-9 8-13 10-14 10-17 11-21 13-32 17-24 11-32 13-33 11-30 8-32 7-40 6-42 3h-25l-29-2-33-5-25-6-27-9-29-14-16-10-16-12-13-12-13-13-11-14-10-15-9-17-9-23-6-23-3-21-1-11v-20l2-22 3-16h1v27l2 20 3 17 5 17 8 21 12 24 14 21 9 11 18 18 17 13 14 9 23 12 27 10 22 6 25 5 23 3 27 2h23l31-2 25-3 28-5 35-8 30-9 25-9 24-10 29-14 21-11 24-15 19-13 16-12 13-11 14-12 25-25 18-22 13-18 11-18 10-18 10-21 10-30 5-21 2-13 1-12-16 10-18 13-7 6-4 3-2-1h-14l-2 9-2 6h-13l-11-1h-14v-2l19-14 16-12 38-28 16-12 18-13z" fill="#F08406"/>
<path transform="translate(1102,357)" d="m0 0 6 2 3 3v6l-15 35h12l33 4 26 5 24 6 6 1 1-5 7-16 6-5h7l5 4 1 6-18 40-17 40-6 14 72 5 22 1-8-20-10-18-3-5 1-7 3-3h8l7 8 12 21 9 21-5 5-14 11-27 21-12 9-14 11-9 7-1 1-17-1-10 5-19 14-14 10h-2v2l-4 1v2l-7 4-12 10-16 11-1-4 1-4-47-3-21-2-5-3-3-6 3-6 4-3h11l51 4h15l29-70 6-13h-14l-92-7-13 30-7 14-4 3h-6l-6-5 1-9 12-29 18-41 12-27 17-37 13-28 7-13 5-6z" fill="#EB7204"/>
<path transform="translate(1294,396)" d="m0 0 5 2 4 2v2l5 2 4 1v2l3-2-2-4h-2l-1-4 4 2 12 12 11 9 17 17 7 11 4-2 4-3h2v-2l5-4h4l2-3 5-2 4-2 3 2-1 5-1-2-7 3-2 1v2l5 2-1 3-16 12-16 13-12 9-14 11-13 10-28 22-26 20-28 21-10 7 3 3 9 7 7 10 3 6v2l8-5h6l-4 7-4 2v2l-3 1-2 4-2 14-4 5-4 2-5 5h-7l-6 5h-2l1 6-8 7-2 1 1 4 1 2h-2v3l5 2 14 9 4 5 2 6-1 9-6 8-6 4-3 1h-10l-8-4-18-13-4-3-5 1-17 12-7 6-5 13-4 6-5 5-9 6-8 3h-14l-11-4-8-6-6-8-3-14 1-11 3-9-6-2-5-4-2-4v-14l3-7 5-5 17-13 19-14 9-7 16-12 10-8h3v-2l4-1v-2l9-6 19-14 14-9 3-1h8l9 1 7-6 17-13 18-14 26-20 14-11 16-12 15-12h2v-2l16-12-1-5-12-17-9-10-22-22-3-5-4-5z" fill="#20100F"/>
<path transform="translate(1143,955)" d="m0 0 28 4 22 5 12 5 5 4 1 5-7 6-14 6-22 7-1 2 25-2 45-6h17l1 4-5 4-16 6-19 5-31 6-39 6-88 12-8 1v3h60l30-2 18-1v1l-21 3-31 3-64 4-56 2h-75l-37-2-40-4-36-6-26-7-15-6-10-6v-4h14l43 9 45 9 29 4 34 3h22l17-2 9-3 1-4-4-3-7-2-22-2-58-4-35-4-31-6-18-5-15-8-4-6 1-6 4-5 10-6 5-1 1-2 24 9 24 7 29 6 28 4 39 3h28l38-3 28-4 28-6 27-7 30-10 21-8z" fill="#434B62"/>
<path transform="translate(1374,504)" d="m0 0 2 1-4 4h-2l1 4 8-4h3l-1 10 1 6-1 6 4 10 5 2 2 8v30l-3 25-6 27-6 20-11 27-12 24-12 19-5 7-1 3-2 1-1 3h-2l-1 4-3 1-1 4h-2l-1 4-3 2-3 5-3 3-3 5-21 21-7 5-7 8-4 1-2 4-11 9h-2v2l-7 5h-2v2l-6 4h-2v2l-8 5h-2v2l-3 2h-3v2h-3v2h-3v2l-6 2v2l-5 3h-3v2l-5 1v2l-8 4h-2v2l-26 13-25 12-5 3-11 4-11 5-39 13-7 2-29 8-6 2-21 4-20 4-13 2-37 4-25 2h-42l-3-1-36-3-32-7-8-3-11-3-9-4-15-6-20-11-21-14-11-9-10-9-8-7-9-10-8-10-3-4 1-7-5-14-4-8-8-19-8-25-2-13 2-5 3 3 6 23 10 25 11 20 11 15 11 13 16 16 14 11 13 9 16 9 23 11 30 10 22 5 33 5 29 2h25l42-3 40-6 36-8 26-7 36-12 31-13 32-15 22-12 26-16 12-8 18-13 17-14 10-9 8-7 20-20 9-11 12-15 12-17 12-19 15-29 10-25 6-20 5-22 3-26v-20l-2-21-2-13-7 4-18 13-38 28-20 15-19 14-16 12-3 2v13l-3 6-8 8-13 10-16 12-4-1-1-4 9-7 1-2-1-3 4-4 5-4h7l7-6 5-5 2-14 3-5h3v-2l5-5 2-3-4-2 13-10 48-36 19-14 18-13z" fill="#1F0F0F"/>
<path transform="translate(986,270)" d="m0 0h9l6 4 8 16 6 20v3l29-2h47l34 3 24 4 30 7 33 11 23 10 25 13 20 13 12 9 14 11 5 5v4h2l3 4-1 2-5-1-7-4v-2l-8-2 6 7-1 2-10-8-6-4-11-8-10-7-17-10-15-8-24-10-27-9-29-7-32-5-36-3h-40l-34 2-46 5-7 1h-17l-3-3 1-4 5-3 16-4 36-6h5l-4-17-5-11v-2l-14 3-13 5-16 8-20 12h-3v2l-11 7-17 12-18 13-13 10-16 13-14 11-14 12-10 9-8 7-15 14-25 25-7 8-10 11-11 14-13 16-12 17-15 23-10 17-1 3h-2l-2 7-8 16-11 28-5 16-2 9-2 1-4 15h-2l-1 5h-3l-1 2-3-1-2-9h-2l3-15 8-26 11-29 12-24 10-19 14-22 9-13 13-17 11-14 9-10 7-8 11-12 39-39 8-7 14-12 10-9 9-7 13-11 12-9 18-14 17-12 16-11 22-14 20-11 22-9z" fill="#5F1A04"/>
<path transform="translate(1198,575)" d="m0 0 9 2 14 8 5 4v2h2l7 10 1 7-4 4 2 1v2l5-1-5 5-13 11-17 12-12 10h-2v2l6 2 11-7 9-6 2 4-8 7-2 1 1 4 1 2h-2v3l2 1h-4v5l-5 2v2l5 2 11 7 3 3v5l-6 5-6-1-19-12-10-7-7-4-6-1v7l-11 9-16 12-6 3h-8l-19-9-16-9-11-7-3-3v-5l5 1 23 12 17 9 3 1h8l12-7-1-7-7 4h-2v2l-2 1h-9l-34-17v-2l-5-1-3-1 1-4 1-2h3v-2h3l1-3 3-1 4-4 17-12 4-2 2 1v2l5 2 22 12 5 1v-6l-5-2-14-8-8-6 1-3 19-14h3l1-3 7-4 1-2 3-1 1-2 3-1 1-2h3l1-3h3v-2l4-1v-2l18-13z" fill="#474F66"/>
<path transform="translate(693,325)" d="m0 0h24l11 2 5 2 2 7-5 15-8 15-9 19-10 19-8 16-4 5h-6l-2-2v-7l8-20 7-14 11-23 5-10-5 2-19 10-22 14-16 12-10 7-3 1v2l-9 7-7 6h-2v2l-8 7-10 9-16 16-7 8-13 15-10 13-13 18-9 14-6 11-6 10-9 19-7 15-9 23-7 25-5 24-4 29-3 3-5-1-3-3v-18l3-24 6-27 8-25 4-10 5-12 14-28 12-21 10-15 16-22 10-13h2l2-4 8-10 30-30 6-5h2v-2l11-9 17-14 17-12 15-10 11-7 14-8h-10l-32 4-23 4-26 6-15 4h-6l-3-3 1-6 14-6 23-7 33-7 20-3z" fill="#371911"/>
<path transform="translate(1357,564)" d="m0 0h2v12l-4 23-7 24-7 19-12 25-8 14-13 20-13 18-13 15-9 10-22 22-11 9-10 9-16 12-16 11-19 12-15 9-23 12-27 13-36 14-25 8-26 7-9 2h-5l4-2 9-3h3v-2l26-10 43-19 29-15 13-8 20-13 14-10 16-12 14-12 18-18 8-7 16-17 9-11 11-13 13-18 15-23 12-21 9-19 9-24 5-17 1-8 24-16z" fill="#FEDD5A"/>
<path transform="translate(804,701)" d="m0 0 23 1 76 5-1 6-8 20-22 57-2 5-29-2-63-7-5-1 3-9 10-29 11-29z" fill="#FEDD5A"/>
<path transform="translate(1314,761)" d="m0 0v3l-3 3-3 5-6 7-5 6-5 5-11 12-11 11-8 7-10 9-14 11-17 13-22 14-21 12-27 14-30 13-11 5-15 5-8 3-20 7-22 6-17 5-43 8-24 3-41 3-21 1-6 1 8 4 30 5 10 4 3 3-2 5-3 4h5v1h-25l-39-4-29-4-8-3-1-5 8-4-1-4-1-3-5-1-3-1v-2l-9-2-33-10-22-9-15-9-9-6v-2l-3-1 4-1 9 5 11 4 9 4 11 3 8 3 32 7 36 3 3 1h42l46-4 16-2 30-5 17-4 9-2 30-8 9-2 7-3 17-5 8-3 13-5 11-5 10-4 16-8 25-12 4-3 7-2v-2l8-4h2v-2l5-1v-2l6-3h2v-2l6-2v-2h3v-2h3v-2l6-2v-2l8-5h2v-2l6-4h2v-2l6-4 3-1v-2l8-6 6-5 1-2 5-3 6-7 8-6 5-5z" fill="#8497B5"/>
<path transform="translate(944,391)" d="m0 0h17l52 3 23 2-7 17-16 35-15 34-3 2-85-6-7-1 1-5 20-41 12-26z" fill="#FEDD5A"/>
<path transform="translate(1379,566)" d="m0 0h1l2 12v11l-2 4-1 12-3 15-2 9-8 23-6 16-7 15-6 11-5 9-8 14-3 3-3 5-2 3h-2l-1 5-7 8-5 7-5 5-6 8-5 5-4 5-9 9h-2l-3 6h-2l-2 4-3 3h-2v2h-3l-1 3-5 4h-2v2l-5 2-1 3-9 7-18 13-17 12-24 14-11 6-14 8-11 5-23 10-15 6-12 5-16 6-23 7-32 8-36 6-20 3-19 3-17 2h-3v3l-5 1-9 1h8l1 2-12 2h-42l-3-1-36-3-32-7-8-3-11-3-9-4-15-6-20-11-21-14-11-9-10-9-8-7-9-10-8-10-3-4 1-7-5-14-4-8-8-19-8-25-2-13 2-5 3 3 6 23 10 25 11 20 11 15 11 13 16 16 14 11 13 9 16 9 23 11 30 10 22 5 33 5 29 2h25l42-3 40-6 36-8 26-7 36-12 31-13 32-15 22-12 26-16 12-8 18-13 17-14 10-9 8-7 20-20 9-11 12-15 12-17 12-19 15-29 10-25 6-20 5-22 4-33z" fill="#150607"/>
<path transform="translate(1043,327)" d="m0 0h40l36 3 36 6 32 8 28 10 22 10 23 13 13 9 8 6 10 7 11 9 29 29 12 17 3 5-1 4-14 11h-2v2l-5 2-2-6-14-24-10-13-12-13-8-8-11-9-15-11-19-11-16-8-21-9-25-8-30-7-32-5-35-3-44-1-38 2-28 2h-25l-8-3-4-4 4-5 6-1 2 2h17l43-5 24-2z" fill="#FEF2B3"/>
<path transform="translate(1087,421)" d="m0 0h16l30 3 29 5 25 6 1 4-11 25-13 31-1 1-19-1-80-6-7-1 2-6 13-29 12-27z" fill="#FEDD5A"/>
<path transform="translate(753,586)" d="m0 0h10l67 5-1 5-23 54-12 29-1 3-25-1-32-2-8-1 1-8 7-31 8-28 8-24z" fill="#FEDD5A"/>
<path transform="translate(802,491)" d="m0 0 39 1 26 1 7 1-3 9-7 15-13 28-12 27-1 1-19-1-52-4-7-1 2-5 8-17 12-22 15-26z" fill="#FEDD5A"/>
<path transform="translate(871,350)" d="m0 0v3l-17 14-14 11-13 11-11 9-16 15-10 9-27 27-7 8-10 11-11 14-13 16-12 17-15 23-10 17-1 3h-2l-2 7-8 16-11 28-5 16-2 9-2 1-4 15h-2l-1 5h-3l-1 2-3-1-2-9h-2l3-15 8-26 11-29 12-24 10-19 14-22 9-13 13-17 11-14 9-10 7-8 11-12 39-39 8-7 14-12 8-7 1 4-5 4-4 5-1 3 4-2 6-5h2v-2l22-14 6-5 15-10z" fill="#531905"/>
<path transform="translate(1135,928)" d="m0 0h5l1 3-4 3-2 5-33 13-29 9-35 9-26 5-32 4-13 1h-41v-1l13-1 2-4 2-5-6-4-12-3-24-4-8-4-1-2 7-1 50-3 29-3 29-5 9-2h6v3l-2 3 1 7 4 2 15-1 24-4 32-8z" fill="#606B87"/>
<path transform="translate(1175,515)" d="m0 0 26 1 65 4 4 1-12 10-19 14-11 9-12 9-2 2-17-1-10 5-19 14-14 10h-2v2l-4 1v2l-6 1v-6l10-23 15-37 7-17z" fill="#FDDC59"/>
<path transform="translate(1294,396)" d="m0 0 5 2 4 2v2l5 2 4 1v2l3-2-2-4h-2l-1-4 4 2 12 12 11 9 17 17 7 11 4-2 4-3h2v-2l5-4h4l2-3 5-2 4-2 3 2-1 5-1-2-7 3-2 1v2l5 2-1 3-16 12-16 13-12 9-14 11-13 10-28 22-26 20-28 21-10 7-4-1v-2l-9-1-3-2 7-2 11-9 12-9 18-14 26-20 14-11 16-12 15-12h2v-2l16-12-1-5-12-17-9-10-22-22-3-5-4-5z" fill="#33150F"/>
<path transform="translate(1258,625)" d="m0 0h9l9 1h8l3 1-3 10-10 20-15 25-10 14-12 16-11 12-9 10-12 12-7-4-7-8-12-19-4-4 5-6 8-6 4-1 12 8 3 1h10l8-4 6-8 1-9-3-8-6-5 1-4 14-11 11-10 8-7 3-1v-3l-3-3z" fill="#FDDC59"/>
<path transform="translate(1230,612)" d="m0 0 4 1v2l5-1-5 5-13 11-17 12-12 10h-2v2l6 2 11-7 9-6 2 4-8 7-2 1 1 4 1 2h-2v3l2 1h-4v5l-5 2v2l5 2 11 7 3 3v5l-6 5-6-1-19-12-10-7-7-4-6-1v7l-11 9-16 12-6 3h-8l-19-9-16-9-11-7-3-3v-5l5 1 23 12 17 9 3 1h8l12-7-1-7-7 4h-2v2l-2 1h-9l-34-17v-2l-5-1-3-1 1-4 1-2h3v-2h3l1-3 3-1 4-4 17-12 4-2 2 1v2l5 2 5 3 1 4-3 1-7-2h-13l-3 10v9l1 2-1 2 5 2 11 7 6 3 10-2 11-7 1-2h2v-2h3v-2l7-4 2-3 5-1v-2l4-2 1-2 5-3 7-3 8-6 11-8h2v-2l4-1v-2l10-7z" fill="#150B0F"/>
<path transform="translate(988,556)" d="m0 0h12l10 3 10 7 6 10 3 11v7l-4 11-4 6-8 7-9 4-11 1-14-3-9-6-7-8-2-5v-18l4-11 9-10 10-5z" fill="#36150C"/>
<path transform="translate(668,839)" d="m0 0 3 1 8 11 8 8 7 8 8 7 16 13 17 11 14 8 2 2-1 1 2 1v2l5 2 10 7 16 8 24 9 33 10v2l5 1 3 1 3 4-1 4-6 3h-2l1 4 2 2-13-2-29-9-24-10-25-13-17-11-16-13-10-9-10-10-10-13-11-17-12-21z" fill="#444C63"/>
<path transform="translate(1206,665)" d="m0 0 7 1 14 9 4 5 2 6-1 9-6 8-6 4-3 1h-10l-8-4-18-13-4-3-5 1-17 12-7 6-5 13-4 6-5 5-9 6-8 3h-14l-11-4-8-6-6-8-3-14 1-11 2-6 5-1 1 4-6 9 1 6-1 7h3l4 6 3 3v2l5 2 9 3 6-2-4-2 11-2 10-4 3 1 1 2 4-1 2-4 3-7 1-12v-3l18-14 8-6 1-7h6l15 9 11 8 12 7 5-1 4-3v-5l-8-6-10-6v-2l4-2z" fill="#150809"/>
<path transform="translate(1173,687)" d="m0 0 5 1 13 9-3 3-8 6-4 6 5 4 1 3h-2l3 7-3 5-13-2-8-2-7 1-4 4 1 8 6 1v1l-9 3-14 8-9 3-12 1-12-3-10-7-6-8-4-8v-7l5 5 8 6 11 4h14l10-4 8-6h2l8-16 3-7 12-10 12-8z" fill="#F08406"/>
<path transform="translate(1198,575)" d="m0 0 9 2 14 8 3 3-1 2-4-3-15-3-5 1-1 5 4 6 2 4-11 10-8 7-11 10-18 10-5 8-6-2-15-9-5-4 1-3 19-14h3l1-3 7-4 1-2 3-1 1-2 3-1 1-2h3l1-3h3v-2l4-1v-2l18-13z" fill="#606C88"/>
<path transform="translate(753,586)" d="m0 0h10l67 5-1 5-2 5-30-2-24-2h-10l-6 29-9 52-1 1h-11l-8-1 1-8 7-31 8-28 8-24z" fill="#FEF2B4"/>
<path transform="translate(1364,521)" d="m0 0h4l1 4-17 12-19 14-16 12-38 28-21 16-6 4v13l-3 6-8 8-13 10-16 12-4-1-1-4 9-7 1-2-1-3 4-4 5-4h7l7-6 5-5 2-14 3-5h3v-2l5-5 2-3-4-2 13-10 48-36 18-13 2 2 4-1 12-7 6-2v-2h3v-2z" fill="#130608"/>
<path transform="translate(587,733)" d="m0 0 5 1-1 11-1 9v17l3 21 4 15 9 25 9 16 7 12 2 6-1 5-3 3-4-1-9-11-7-10-9-16-8-21-6-22-2-14v-16l3-15 6-12z" fill="#391B12"/>
<path transform="translate(804,701)" d="m0 0 23 1 76 5-1 6-2 4-37-1-52-3-7 19-17 49-2 4h-12l3-9 10-29 11-29z" fill="#FEF7BF"/>
<path transform="translate(802,491)" d="m0 0 39 1 26 1 7 1-3 9-1 1-28-1-32-2-2 6-14 27-15 31-2 3h-17l2-5 8-17 12-22 15-26z" fill="#FEF8C4"/>
<path transform="translate(988,556)" d="m0 0h12l10 3 10 7 6 10 3 11v7l-4 11-4 6-8 7-9 4-11 1-14-3-9-6-7-8-2-5v-18l4-11 9-10 10-5zm1 11-9 4-5 4-3 4v2h-2l-1 2v13l4 9 8 7 9 2h7l6-2 8-5 6-9 2-6v-8l-4-3-1-4h-2l-2-4-12-6z" fill="#130608"/>
<path transform="translate(1372,522)" d="m0 0 2 1 2 13v17l-2-4 1-2h-2l-2-6-3-1-2-4-4 1-5 1v2l-6 4h-2v2h-2v2l-5 2-2 5-2 3-5 1-6 7h-2l1 2 13-8 4-1 1-3h3l-2 4-9 6-7 6-5 6-4 1-1 3-6 3h-3l-3 5-8 5-5 15h-13l-11-1h-14v-2l19-14 16-12 38-28 16-12 18-13z" fill="#FA9309"/>
<path transform="translate(894,495)" d="m0 0h14l71 5 10 1-3 8-7 1h-43l-37-2-8 16-13 29-8 19-1 3h-11l2-6 17-37 15-33z" fill="#FEF2B0"/>
<path transform="translate(965,712)" d="m0 0 63 3 26 1-4 5-6 2-18 1h-54l-12 36-12 35-1 4h-13l-2-2 13-34 18-47z" fill="#FEF7C0"/>
<path transform="translate(1087,421)" d="m0 0h16l30 3 29 5 25 6 1 4-1 2-9-1-40-6-35-3-6-1-3 9-12 28-8 17-1 4h-16l2-6 13-29 12-27z" fill="#FEF7C1"/>
<path transform="translate(850,593)" d="m0 0 46 3 43 4-2 4-7 3h-38l-36-2-15 34-16 39-1 5h-12l1-5 30-70z" fill="#FEF7BE"/>
<path transform="translate(600,494)" d="m0 0 5 1 1 5-14 20-8 13-6 10-11 24-7 20-5 18-3 5-6-2-2-5v-10l3-15 4-12 6-15 9-17 8-13 10-13 7-8z" fill="#391A11"/>
<path transform="translate(1175,515)" d="m0 0 26 1 65 4 4 1-12 10h-2v-3l-11 1h-16l-44-2-5-1-3 9-14 34-6 15-1 5 2 1-4 3h-2v2l-4 1v2l-6 1v-6l10-23 15-37 7-17z" fill="#FEF1AF"/>
<path transform="translate(1347,461)" d="m0 0 1 3-3 5-10 9-9 7-7 6-16 12-1 2h-2v5l1 3-39 30-28 21-10 7-4-1v-2l-9-1-3-2 7-2 11-9 12-9 18-14 26-20 14-11 16-12 15-12h2v-2l12-9z" fill="#120608"/>
<path transform="translate(558,841)" d="m0 0 5 1 8 22 8 15 8 12 9 11 10 10 13 9 14 8 1 5-3 3-10-1-12-5-14-10-16-16-11-15-8-16-5-14-1-13 2-5z" fill="#361912"/>
<path transform="translate(925,816)" d="m0 0h15l76 5 11 1-3 10-1 3h-34l-35-2-23-2h-9l-3 6-1-4z" fill="#FEF2B3"/>
<path transform="translate(1050,505)" d="m0 0 106 8-2 6-2 4h-22l-77-5-2 6-9 14-9 10-1-3 10-23 7-16z" fill="#FEF2B2"/>
<path transform="translate(647,660)" d="m0 0h1v27l2 20 3 17 5 17 2 7-3 1 2 12 6 18v8l2 10 2 1 5 12 6 9 5 9v2l3 1v2h2l8 11 11 11 8 6 3 3 1 4-4-1-13-12-13-13-11-14-10-15-9-17-9-23-6-23-3-21-1-11v-20l2-22z" fill="#F99109"/>
<path transform="translate(742,896)" d="m0 0h7l25 10 11 5 21 7 17 4 6 2 10 2 6 1 12 1 6 2h11l15 3-1 2h-11l-2-1-1 4h40v1h-42l-3-1-36-3-32-7-8-3-11-3-9-4-15-6-4-3-5-5-8-6z" fill="#201112"/>
<path transform="translate(768,800)" d="m0 0 73 8 22 2-1 5-4 8-25-1-36-4-29-5-4-1 1-7z" fill="#FEF2B2"/>
<path transform="translate(651,705)" d="m0 0 1 4h2l2 9 7 25 1 5 13 28 9 16 4 5 10 13 4 4v2h2l7 8 10 9 3 2v2h2v2l4 1 10 8 10 6 10 5 13 5 12 6 18 7 9 3 8 3 11 2 9 2 10 2 2 2h-13l-24-5-23-7-25-10-21-11-12-8-13-10-12-11-14-14-11-15-11-18-11-22-8-21-5-19z" fill="#FEF6BD"/>
<path transform="translate(1028,594)" d="m0 0h3l2 7v8l-3 12-6 9-7 6-11 5-7 2h-5l-3-5v-2l-4-1h-8l-3 1-7-9-5-12-1-9 5 5 9 7 9 3 12 1 8-2 10-5 7-8 4-9z" fill="#F08406"/>
<path transform="translate(756,442)" d="m0 0 1 3h-2l-1 5h-2v2h-2l-1 3h-2l-3 6h-2l-3 6h-2l-2 5-3 6-5 5-5 6-4 7h-2l-2 5-6 9h-2l-2 4-7 11-6 10h-2l-1 4-8 14-7 11-3 1 1-8 1-5h2v-5l3-3h-2l-2-1 10-17 13-20 14-19 8-10 7-9 4-2h3v-2l8-8h2v-2l5-5 3-1v-2h3l1-3z" fill="#5E1804"/>
<path transform="translate(1224,402)" d="m0 0h5l2 2-1 8-6 17-7 18-15 38-5 13h-11l-3-1 3-9 11-26 13-30 13-29z" fill="#FEF1B0"/>
<path transform="translate(644,747)" d="m0 0 3 3 6 23 10 25 2 6h-3l8 16 8 12 12 16 7 7v2l3 1v2h2v2l3 1v2h2l3 3v2l5 2 8 8 3 5 2 1-1 2-8-4-4-3-7-3-6-3-15-14-7-8-9-11-3-4 1-7-5-14-4-8-8-19-8-25-2-13z" fill="#200F0D"/>
<path transform="translate(1321,425)" d="m0 0 5 1 2 1v2l4 2 2 4h2l11 16 4 7v2h8v-2l7-2 3-5-5 3 1-5 4-6h2v-2l5-4h4l2-3 5-2 4-2 3 2-1 5-1-2-7 3-2 1v2l5 2-1 3-16 12-16 13-12 9-14 11-13 10-14 11-3-2 1-5h2l1-3 9-7 12-9 9-8 10-8 3-3 1-5-12-18-8-10-6-6z" fill="#221212"/>
<path transform="translate(1191,342)" d="m0 0 9 3 12 3 11 4 16 6 19 10 17 9 11 7 7 1 2-2 16 13v5h2l3 4-1 2-5-1-7-4v-2l-8-2 6 7-1 2-10-8-6-4-11-8-10-7-17-10-15-8-24-10-17-6z" fill="#581A04"/>
<path transform="translate(1329,583)" d="m0 0h2l-3 15-8 23-10 23-10 19-9 14-1-2-1-3h-3l-1-2 8-15 10-23 8-22 4-16 9-7z" fill="#FEF2B0"/>
<path transform="translate(1286,397)" d="m0 0 5 2 11 9 29 29 12 17 3 5-1 4-14 11-2-1-2-9-12-25-9-14-3-6-13-16z" fill="#FDD855"/>
<path transform="translate(944,391)" d="m0 0h17l38 2 5 2v1l-16 1h-34l-5 1-11 21-14 31-10 23-1 4h-10l1-5 20-41 12-26z" fill="#FEF7C2"/>
<path transform="translate(1352,668)" d="m0 0 1 4-10 20-10 17-13 19-13 17-12 14-7 8-21 21-11 9-9 8-13 10-14 10-17 11-21 13-32 17-24 11-5 2-4-1 8-4 3-1h2l1-3 2 1 19-9v-2l6-3 6-1 5-5 10-6 6-3 22-13 20-14 13-10 11-9 13-11 27-27h2v-2h2l1-4 8-9h2l1-4 10-14h2l2-5 4-6 4-4 8-13 12-23z" fill="#F88F09"/>
<path transform="translate(1287,670)" d="m0 0 4 2-1 7-15 22-10 13-22 26-15 16-10 9-11 5-4 7-9 4h-2l2-4 5-6 10-8 10-9 12-11 12-13 11-14 10-13 11-16 9-15z" fill="#FEF7C1"/>
<path transform="translate(1117,634)" d="m0 0 3 1v2l5 2 5 3 1 4-3 1-7-2h-13l-3 10v9l1 2-1 2 5 2 11 7 6 3 10-2 11-7 1-2h2v-2h3v-2l7-4 2-3 5-1v-2l4-2 1-2 5-3h2v2l-14 10-18 14-12 8h-2v2l-2 1h-9l-34-17v-2l-5-1-3-1 1-4 1-2h3v-2h3l1-3 3-1 4-4 17-12z" fill="#606C88"/>
<path transform="translate(989,567)" d="m0 0h9l12 6 3 4v7l-6 7-9 4h-11l-6-3-5-3-1-4h-2v-7l4-5 6-4z" fill="#FDD757"/>
<path transform="translate(1251,624)" d="m0 0 7 2v10l4 2h-2v2l-8 7-14 12-14 11-1 2-5-2-10-6v-3l9-6 19-14 13-12z" fill="#FA9309"/>
<path transform="translate(1090,696)" d="m0 0 5 1 16 8 12 5 9 2-2 6-7 6-8 3h-12l-7-3-5-5-2-3-1-5v-9z" fill="#FCFCFB"/>
<path transform="translate(1175,515)" d="m0 0 9 1 1 2-1 2h-2v2h-2l1 3-11 27-12 30-2 7 2 1-4 3h-2v2l-4 1v2l-6 1v-6l10-23 15-37 7-17z" fill="#FEF8C5"/>
<path transform="translate(797,498)" d="m0 0 4 2 3-1 4 2-8 16-10 19-12 25-1 2-5 2-3-2-1-8-1-3 15-28z" fill="#FEF2B3"/>
<path transform="translate(753,586)" d="m0 0h10l67 5-1 5-2 5-30-2-24-2h-16l-10 10 1-8 4-12z" fill="#FEF8C3"/>
<path transform="translate(1076,669)" d="m0 0 5 1 23 12 17 9 3 1h8l12-7 16-11 4-1 2 5-11 9-16 12-6 3h-8l-19-9-16-9-11-7-3-3z" fill="#444C63"/>
<path transform="translate(894,495)" d="m0 0 13 1v1h-7l-2 4-1 4 1 2-5 13-8 17-15 35-1 3h-11l2-6 17-37 15-33z" fill="#FEF8C5"/>
<path transform="translate(1179,661)" d="m0 0 5 1 33 21 3 3v5l-6 5-6-1-19-12-10-7-10-5 1-3z" fill="#FDFDFD"/>
<path transform="translate(1075,742)" d="m0 0 3 1 4 4-1 9-15 43-1 7h-13l3-9 17-46z" fill="#FEF1AE"/>
<path transform="translate(964,725)" d="m0 0h4l-3 10-9 29-7 21-4 8-4-2-2-6-2 1 3-10 18-47 1-2z" fill="#FEF2B1"/>
<path transform="translate(1091,426)" d="m0 0 4 1-1 6-5 10-9 21-8 17-4 2-2-2v-7l-2-1 3-9 13-29 2-5z" fill="#FEF2B3"/>
<path transform="translate(725,695)" d="m0 0 32 2 28 2-1 6-2 4h-16l-32-3-10-2v-7z" fill="#FEF6BC"/>
<path transform="translate(1043,610)" d="m0 0h11l56 4 3 1-1 6-2 2-33-1-21-2-9-3-4-5z" fill="#FEF0AC"/>
<path transform="translate(737,901)" d="m0 0 4 1 10 5-1 2 2 1v2l5 2 10 7 16 8 24 9 33 10v1h-16l-11-1h-7l-16-9-25-13-11-8-9-7-8-9z" fill="#616C88"/>
<path transform="translate(1148,597)" d="m0 0 2 1-5 8-9 8-14 10-10 7-8 5-5 4-4 1-2 4-8 7-6 2-4 2-3 5-2 3h-2l-1 3v-7l4-6 20-15 19-14 9-7 16-12 10-8z" fill="#140608"/>
<path transform="translate(1293,512)" d="m0 0 5 2-5 5-18 14-13 10-28 21-9 6-1-3 1-4 10-7 5-5 11-8 10-9 7-6 7-3 8-7z" fill="#211416"/>
<path transform="translate(815,706)" d="m0 0h20l27 2 23 3 1 4h12l2 2-37-1-52-3-2 2 1-4h2l1-4z" fill="#FEF3B5"/>
<path transform="translate(846,607)" d="m0 0h4l-1 7-11 25-8 20-6 14-3 2-2-2h-3l3-9 24-56z" fill="#FEF2B2"/>
<path transform="translate(1116,360)" d="m0 0h4l2 3-1 9-8 20-4 11h-13l1-6 7-15 6-14 4-6z" fill="#FEF8C4"/>
<path transform="translate(855,598)" d="m0 0h22l23 2 3 1 24 1 10 1-3 3-4 1h-38l-37-2-1-2h-2l2-4z" fill="#FFF3B5"/>
<path transform="translate(993,643)" d="m0 0 5 1v9l-7 20-8 21h-10l2-9 17-40z" fill="#FEF8C4"/>
<path transform="translate(1238,615)" d="m0 0h2v7l-4 6-13 10-4 3h-2v2l-19 13-3 1-5-3v-2l9-7 13-10 11-8 11-9z" fill="#444C63"/>
<path transform="translate(803,714)" d="m0 0 3 1-2 9-10 29-6 16h-4l-1 4-1-7h-2l3-11 14-37 1-2z" fill="#FEF2B1"/>
<path transform="translate(825,492)" d="m0 0h16l26 1 7 1-3 9-1 1-28-1-32-2v-1h18v-2l7-2v-2l-10-1z" fill="#FEF0AC"/>
<path transform="translate(1215,643)" d="m0 0 3 3-5 6-5 3 1 4 1 2h-2v3l2 1h-4v5l-6 3-15-9-1-10 5-2 1 2 6 2 11-7z" fill="#21100E"/>
<path transform="translate(1092,696)" d="m0 0 9 4 19 9 12 3-2 6-6 5-8 1-1-3h-2l-5-5-9-7-6-10z" fill="#FDECAB"/>
<path transform="translate(1371,663)" d="m0 0 1 3-9 20-12 23-9 14-5 7-1 3-2 1-1 3h-2l-1 4-3 1-1 4h-2l-1 4-3 2-3 5-3 3-3 5-16 16-3 1 2-5 3-4h2l2-4 7-8h2l2-5 9-11 7-9 6-8 1-3h2l2-4 11-16 5-10 10-19z" fill="#160E14"/>
<path transform="translate(1206,665)" d="m0 0 7 1 14 9 4 5 2 6-1 9-4 6-3-1 2-7-1-8-3-1v-2h-3v-2l-7 1-12-7v-2l4-2z" fill="#160808"/>
<path transform="translate(1314,761)" d="m0 0v3l-3 3-3 5-6 7-5 6-5 5-11 12-16 16-6-1 2-5 5-6 5-4 1-2 5-3 6-7 8-6 5-5z" fill="#8A9AB6"/>
<path transform="translate(1110,644)" d="m0 0h11l11 6 3 3-1 4-2 3h-2l-1-3-9-5-5 1 1 4 2 6 3 1-1 2 2 2-5-1-11-7-2-2 2-9 2-4z" fill="#12080B"/>
<path transform="translate(806,718)" d="m0 0h1l-1 8-19 55-2 4h-12l3-9 4-10h3l1 3h4l1-6 7-19 8-24z" fill="#FEF9C6"/>
<path transform="translate(1050,505)" d="m0 0 19 2 5 1v1l-14 1-6 2-1 3-1 7-9 15-10 11-1-3 10-23 7-16z" fill="#FEF7BF"/>
<path transform="translate(886,512)" d="m0 0h5l-1 6-5 12-7 15-6 12-3 9-3 1-3-2 1-5 13-28z" fill="#FEF2B0"/>
<path transform="translate(1168,531)" d="m0 0 4 1 1 3-7 20-10 24h-2l-1 2h-3l-1-4 16-39z" fill="#FEF1AF"/>
<path transform="translate(1090,653)" d="m0 0h3v9l3 1v2l5 1 10 7 14 8 5 1v3h-7l-34-17v-2l-5-1-3-1 1-4 1-2h3v-2h3z" fill="#7D8DAA"/>
<path transform="translate(968,726)" d="m0 0h2l-1 6-18 55-4 12h-13l-2-2 5-11 3-2 1 7 4 1 8-21 9-30 5-14z" fill="#FFF8C5"/>
<path transform="translate(1216,680)" d="m0 0h4v2h3l4 5 1 8-2 5v3l-6 4-3 1h-10l4-2-1-4-3-3 5-2 5-4 2-2v-5l-5-5z" fill="#27130E"/>
<path transform="translate(1046,823)" d="m0 0 44 1-4 3-13 3-13 2-17 1 1-7z" fill="#FEF7C2"/>
<path transform="translate(1314,549)" d="m0 0h3v3h-2l-2 4-3 3h-2v2l-10 7-8 4-4 4-4 2-2 4-10 6-5 2 2-4h2l-1-3 32-24z" fill="#1B0C0C"/>
<path transform="translate(1093,434)" d="m0 0h1l-1 7-11 26-8 17-1 4h-16l2-6 4-9 3-1 1 3v6h4l11-23 9-22z" fill="#FEF8C5"/>
<path transform="translate(802,491)" d="m0 0 23 1 14 1-4 1v2l-7 2v2h-18l-1 5-2-4-5-1h-4l1-5z" fill="#FEF9C7"/>
<path transform="translate(848,616)" d="m0 0h2l-1 5-13 30-11 27-1 5h-12l1-5 4-6h3l2 2 4-8 20-48z" fill="#FEF8C5"/>
<path transform="translate(1080,748)" d="m0 0h1v8l-15 43-1 7h-13l3-9 2-5 3-1 4 1 11-28 4-15z" fill="#FEF8C2"/>
<path transform="translate(1067,613)" d="m0 0h27l16 1 3 1-1 6h-19l-2-1-15-1v-2l-9-3z" fill="#FEF8C2"/>
<path transform="translate(989,567)" d="m0 0h9l5 3-1 7-4 4h-15l-3-7 7-6z" fill="#FDFAF4"/>
<path transform="translate(1197,563)" d="m0 0h8l2 2-1 2-9 1-11 7-9 8-9 6-8 4-3-1 1-3 18-13 16-11z" fill="#130709"/>
<path transform="translate(1173,687)" d="m0 0 5 1 13 9-1 2-4-1-4-4-2-1h-11v2l-3 1-1 2h-3l-2 4-4 1v2h-2l-6 12-3 8h-2l-2 4-9 5 2-4 3-1 8-16 3-7 12-10 12-8z" fill="#F88F09"/>
<path transform="translate(1116,651)" d="m0 0 5 1 8 4 1 4h2l2-4 2-1 1 6-4 6-3 2h-9l-2-4 1-1-3-3-3-5 1-4z" fill="#211313"/>
<path transform="translate(1189,675)" d="m0 0 17 5 6 2 1 5-1 4-3 2-6-1-14-9-2-5z" fill="#FDF9CF"/>
<path transform="translate(1142,328)" d="m0 0 12 1 15 5 9 4 3 2 6 1v2l2 1-9-1-29-7-9-2v-2h-5l2-3z" fill="#601E03"/>
<path transform="translate(1099,690)" d="m0 0 6 1 5 5v2l5 1 2 4 4 1v2l3-1 3 1 2 5-9-1-21-10-3-3v-2h2z" fill="#12070A"/>
<path transform="translate(754,837)" d="m0 0 5 1 17 9 25 10 26 8 18 4v2l-12-1-17-4-23-8-16-7-22-12z" fill="#FFF8C5"/>
<path transform="translate(669,589)" d="m0 0 2 3-4 11-4 13-5 19-4 9-3 3v-7l4-15 9-27 4-8z" fill="#FDF0B7"/>
<path transform="translate(1161,567)" d="m0 0h1l-1 8-4 9-1 5 2 1-4 3h-2v2l-4 1v2l-6 1v-6l6-14h2v2h3l1-3 2-1 4-9z" fill="#FEF6C1"/>
<path transform="translate(930,309)" d="m0 0 3 1-6 4h-3v2l-11 7-17 12-13 9h-2v-3h2l2-4 10-8 14-9 9-6 6-3z" fill="#572007"/>
<path transform="translate(1258,625)" d="m0 0h9l9 1h8l3 1-1 4-9 2-5 2h-14l-1-1z" fill="#FEEFA3"/>
<path transform="translate(1395,726)" d="m0 0h2l-2 6-12 23-14 23-5 7h-1v-5h2l2-6 3-4 1-3h2l2-5 5-9 8-16 2-5 2-4z" fill="#25171A"/>
<path transform="translate(925,816)" d="m0 0h15l14 1-1 2-15 2h-5l-3 1v7h-8l-2 6-2 2 1-6z" fill="#FEF5B9"/>
<path transform="translate(749,699)" d="m0 0h7l3 1v2l5 1 4 2 5 1 9 2v1h-16l-24-2 1-2 3-1z" fill="#FEF2B4"/>
<path transform="translate(987,717)" d="m0 0h3v2l3-1 6 1-3 2h45l9-1-2 2-4 1-18 1h-55v-2l6-1 3-3h6z" fill="#FFF3B5"/>
<path transform="translate(1141,595)" d="m0 0 1 4 2 1-14 11-15 11-3 1 1-6 4-4 10-6 8-8h5z" fill="#F18809"/>
<path transform="translate(973,871)" d="m0 0h12l-1 2-20 3-41 3-19-1v-1l37-2 1-1z" fill="#FFF7C2"/>
<path transform="translate(756,699)" d="m0 0h29l-1 6-2 3-9-1-5-1-9-4v-2z" fill="#FEF8C3"/>
<path transform="translate(732,664)" d="m0 0 3 4 2 5 9-3 2-2v10l-1 1h-11l-8-1 1-8 1-5z" fill="#FEF6BE"/>
<path transform="translate(1240,648)" d="m0 0 2 1-1 2 1 4-11 10-3 1-3-3h-1v-5l6-5 7-4z" fill="#F08506"/>
<path transform="translate(1329,583)" d="m0 0h2l-3 15-5 15h-2v2l-3-1v-7l7-19z" fill="#FEF9C7"/>
<path transform="translate(989,595)" d="m0 0h6l-1 4 1 2h-2l-1 4-4 3h-6l-3-3-1-6 2-3 2 1h3z" fill="#5B1503"/>
<path transform="translate(1286,397)" d="m0 0 5 2 11 9 10 10-2 1-1 4-4-1-7-9-8-10z" fill="#F88E08"/>
<path transform="translate(808,404)" d="m0 0 2 1-56 56-2-1 9-9 7-8 29-29 8-7z" fill="#FEF6BF"/>
<path transform="translate(722,869)" d="m0 0 6 2 4 2 16 10 6 4v2l16 8-3 1-20-10-14-9-11-8z" fill="#F78E08"/>
<path transform="translate(983,569)" d="m0 0 2 1-4 5 2 5 13 1v2l-11 1v-2h-4l-2 7 4 2h-3l-4-2-1-4h-2v-7l4-5z" fill="#FDE7A0"/>
<path transform="translate(988,317)" d="m0 0h8v1l-40 7h-5v2l-9 6-1 2-4-1-1-4 3-3 14-4z" fill="#501403"/>
<path transform="translate(1043,610)" d="m0 0h11l10 3 1 4-2 2h-11l-6-3-3-4z" fill="#FEF8C4"/>
<path transform="translate(939,784)" d="m0 0h1l1 7 4 1 3-5h1l-1 8-1 4h-13l-2-2 5-11z" fill="#FEF7C1"/>
<path transform="translate(1028,594)" d="m0 0h3l2 7v8l-1 6-2-4v-2l-7 4-6 4v-3l6-7 4-9z" fill="#F99109"/>
<path transform="translate(989,652)" d="m0 0 2 1 1 8-6 14-3 4-3-4 3-9z" fill="#FEF1AD"/>
<path transform="translate(1293,498)" d="m0 0h2l1 3-16 13-6 4-3-1 3-5 10-9h2v-2z" fill="#F08406"/>
<path transform="translate(1233,520)" d="m0 0h37l-5 5-4 1h-10l-5-2-6-2-7-1z" fill="#FDF7C4"/>
<path transform="translate(1167,852)" d="m0 0 4 1-4 4-17 9-24 11-5 2-4-1 8-4 3-1h2l1-3 2 1 19-9v-2l6-3 6-1z" fill="#F78D08"/>
<path transform="translate(752,470)" d="m0 0h2l-2 6-14 19-4 4v-3l6-12 2-1 3-7z" fill="#FFF9C8"/>
<path transform="translate(1116,651)" d="m0 0 5 1 8 4 1 4-3 3-9-3-4-4 1-4z" fill="#F4F5F6"/>
<path transform="translate(1110,368)" d="m0 0h5l1 8-5 10h-3l-1-7-1-2z" fill="#FEF2B1"/>
<path transform="translate(1119,428)" d="m0 0 4 1h7l4-1 2 2 17 4v1l-15-1-35-3v-1l13-1z" fill="#FFF3B5"/>
<path transform="translate(806,718)" d="m0 0h1l-1 8-11 32-2-3 2-8 9-27z" fill="#FFF8C5"/>
<path transform="translate(1178,648)" d="m0 0h2v2l-14 10-18 14-14 9-3-1 4-1v-2l12-7 2-3h2v-2h3v-2l7-4 2-3 5-1v-2l4-2 1-2z" fill="#AAB5C8"/>
<path transform="translate(1157,833)" d="m0 0 2 1v2l-10 7-6 3-7 1-5 2-3-1 6-3h2l1-2 13-6 5-3z" fill="#EB7104"/>
<path transform="translate(1080,748)" d="m0 0h1v8l-10 29h-2v2h-2l2-8 6-15 4-15z" fill="#FFF8C4"/>
<path transform="translate(1211,680)" d="m0 0 5 2 4 4v5l-6 5-6-1-1-2 5-3v-6z" fill="#FEFDFC"/>
<path transform="translate(850,494)" d="m0 0h24l-3 9h-6l-1-4h-2v-2h-2v-2h-10z" fill="#FEF8C4"/>
<path transform="translate(1150,1035)" d="m0 0h7v1l-21 3-20 2h-10v-2l3-1 30-2z" fill="#444C63"/>
<path transform="translate(800,391)" d="m0 0 2 1 3 1 1 5-9 7-4 1v-4l6-9z" fill="#5F1803"/>
<path transform="translate(1371,663)" d="m0 0 1 3-9 20-10 19h-2l1-5 6-10 8-16z" fill="#110608"/>
<path transform="translate(1322,589)" d="m0 0 1 3-8 16-3 1 2-13 5-5z" fill="#FEE067"/>
<path transform="translate(1080,690)" d="m0 0h3l1 4-6 9 1 6-1 9-2-3-1-11 2-10 1-3z" fill="#1B0807"/>
<path transform="translate(719,585)" d="m0 0h15l-2 8-9-2-4-4z" fill="#FEF7D5"/>
<path transform="translate(1115,828)" d="m0 0 3 1-6 5-16 8-7 1v-2l21-10z" fill="#FFF8C5"/>
<path transform="translate(1212,452)" d="m0 0h1l-1 8-11 27-1 2h-2l3-10z" fill="#FFF7C2"/>
<path transform="translate(1166,676)" d="m0 0h4l1 3h-3l-1 3-7 7-5 2-3-3 13-10z" fill="#1F0F0D"/>
<path transform="translate(1140,513)" d="m0 0h16l-2 6-2 3-5-1-2-5-5-1z" fill="#FEF6BD"/>
<path transform="translate(1324,463)" d="m0 0 4 1 2 10-4 4-2-1-3-9 1-4z" fill="#FEF7C4"/>
<path transform="translate(991,393)" d="m0 0h8l5 2v1l-16 1h-34l-6 1 1-3 42-1z" fill="#FEF3B5"/>
<path transform="translate(1379,757)" d="m0 0 2 1-12 20-5 7h-1v-5h2l2-6 3-4 1-3h2l2-5z" fill="#23181B"/>
<path transform="translate(941,875)" d="m0 0h12l-2 2-29 2-18-1v-1z" fill="#FFFBCD"/>
<path transform="translate(1118,636)" d="m0 0 7 3 5 3 1 4-3 1-9-3v-2l-3-1h2z" fill="#3B70AB"/>
<path transform="translate(1159,830)" d="m0 0m-2 1 2 1-4 3-4 2-2 2-9 4-13 6-2-2z" fill="#F28706"/>
<path transform="translate(1276,626)" d="m0 0h8l3 1-1 4-16 2v-2z" fill="#FEF0A8"/>
<path transform="translate(1062,851)" d="m0 0h6l-3 1v2l-14 4-9 3-5 1 1-2h2v-2z" fill="#FFF7C3"/>
<path transform="translate(1255,608)" d="m0 0h15l2 2h-12l-4 2-1 2v7l1 4 2 1-5-1-1-1-1-13z" fill="#EF8105"/>
<path transform="translate(1090,653)" d="m0 0h3v9l3 1 1 3-5-1-5-3v-2l-4-2h3v-2h3z" fill="#7A87A1"/>
<path transform="translate(731,501)" d="m0 0 1 3-12 22-1 2h-2l1-5 7-14z" fill="#FFF7C3"/>
<path transform="translate(1173,687)" d="m0 0 5 1 13 9-1 2-4-1-4-4-2-1h-10l-1-3z" fill="#F78D08"/>
<path transform="translate(1188,488)" d="m0 0h2l1 5 4 2 1-2v4h-13l2-7z" fill="#FEF9C8"/>
<path transform="translate(1015,578)" d="m0 0 4 2 2 9-1 8-3 7-6 2 6-10 1-4v-8l-4-2z" fill="#1F0F0E"/>
<path transform="translate(1111,735)" d="m0 0 7 1 3 3-4 1h-14l-7-2 4-1 10-1z" fill="#33110A"/>
<path transform="translate(1176,663)" d="m0 0 4 1 2 6-3 4-6-4-1-3z" fill="#FEF9CB"/>
<path transform="translate(1079,724)" d="m0 0 5 5 6 5v2l-8 1-3-6z" fill="#F99109"/>
<path transform="translate(1228,402)" d="m0 0 3 2-1 8h-2l-1 2-4-4 1-6z" fill="#FFF8C6"/>
<path transform="translate(1067,675)" d="m0 0 1 3 6 1v2l4 2 1 4h-5l-6-5z" fill="#160708"/>
<path transform="translate(768,800)" d="m0 0 9 1v2h-5l-4 8-3-1 1-8z" fill="#FEF6BA"/>
<path transform="translate(1117,634)" d="m0 0 3 1-2 6 1 3h-9l2-2-2-3z" fill="#596682"/>
<path transform="translate(770,448)" d="m0 0 2 4-3 1-2 4-4 6-3 1-1-3 6-8z" fill="#FFFACC"/>
<path transform="translate(1330,740)" d="m0 0 1 2-6 9-6 7-1 2-3-1 5-8 3-2 1-3 2-1 1-3z" fill="#A3AEC1"/>
<path transform="translate(984,286)" d="m0 0h6v3l-8 3-6-2v-2z" fill="#FCE7A5"/>
<path transform="translate(854,811)" d="m0 0h9l-3 9-4-1z" fill="#FEF8C2"/>
<path transform="translate(799,738)" d="m0 0h2l-1 5-5 15-2-3 2-8z" fill="#FFF7C3"/>
<path transform="translate(1268,856)" d="m0 0 4 1-5 6-5 4h-3v-2h2l2-5h2v-2z" fill="#5B6681"/>
<path transform="translate(1020,823)" d="m0 0h6l-1 6-2 4h-2l-2-6z" fill="#FEF7C0"/>
<path transform="translate(1178,648)" d="m0 0h2v2l-14 10-8 6-2-1 6-5 1-2 5-1v-2l4-2 1-2z" fill="#B3BDCE"/>
<path transform="translate(839,639)" d="m0 0 1 3-7 16-2-4 6-12z" fill="#FFF7C3"/>
<path transform="translate(856,933)" d="m0 0h8l1 2 5 1v1h-14l-5-1v-1h5z" fill="#110608"/>
<path transform="translate(1386,743)" d="m0 0 2 2-6 11-3 1 1-4 4-8z" fill="#221415"/>
<path transform="translate(754,837)" d="m0 0 5 1 17 9-4 1-12-6-6-4z" fill="#FFF7C1"/>
<path transform="translate(681,532)" d="m0 0 1 4-3 6-6 2 5-10z" fill="#5D2409"/>
<path transform="translate(954,772)" d="m0 0 1 3-5 14-2-4 4-11z" fill="#FFF7C3"/>
<path transform="translate(1212,452)" d="m0 0h1l-1 8-4 10-3 1 3-9z" fill="#FFF8C4"/>
<path transform="translate(649,716)" d="m0 0 2 1 2 7-1 7-2-1-2-12z" fill="#F08506"/>
<path transform="translate(722,869)" d="m0 0 6 2 4 2 2 4-2 1-10-7z" fill="#F68C08"/>
<path transform="translate(980,502)" d="m0 0h8l-1 5-5 1-2-4z" fill="#FEF7BF"/>
<path transform="translate(1391,492)" d="m0 0 1 3h-3l-1 3-6 3-1 2-5 1 5-5z" fill="#1C0D0D"/>
<path transform="translate(1109,640)" d="m0 0 4 2-3 1v2h-2v2l-3 1v-2h-2l1-3z" fill="#5F7BA2"/>
<path transform="translate(1345,807)" d="m0 0 1 2-5 7h-2v2l-4-2h2l2-4 3-1v-2z" fill="#251513"/>
<path transform="translate(1020,628)" d="m0 0h4l-2 4-5 4-3-1z" fill="#EC7604"/>
<path transform="translate(846,932)" d="m0 0h6v3l-1 1h-10v-2h5z" fill="#181015"/>
<path transform="translate(1165,557)" d="m0 0h2l-1 5-3 7-2-2 1-5z" fill="#FFF8C5"/>
<path transform="translate(731,501)" d="m0 0 1 3-5 9h-3l2-5z" fill="#FFF8C6"/>
<path transform="translate(857,890)" d="m0 0 13 1 2 2h-14l-2-2z" fill="#FFFACA"/>
<path transform="translate(977,888)" d="m0 0h10l-4 3h-11l2-2z" fill="#FEF5B9"/>
<path transform="translate(1043,878)" d="m0 0h2l-1 4-7 1-4 1-2-2 1-1h7v-2z" fill="#EB7104"/>
<path transform="translate(1204,629)" d="m0 0h2v2l-6 4-7 5-2-1 3-1v-3h4v-3z" fill="#D1D6E0"/>
<path transform="translate(1273,628)" d="m0 0h8l-4 4-7 1v-2z" fill="#FEFDFB"/>
<path transform="translate(990,563)" d="m0 0 4 1v2l2 1-10 2-1-3 1-2z" fill="#271410"/>
<path transform="translate(1327,828)" d="m0 0h2l-1 3-5 5-3 2-1-3z" fill="#2D2021"/>
<path transform="translate(1125,685)" d="m0 0h5l1 3-1 3h-4l-1-3-2-2z" fill="#351A15"/>
<path transform="translate(1062,851)" d="m0 0h6l-3 1v2l-10 3-1-2h2v-2z" fill="#FFF8C5"/>
<path transform="translate(1339,728)" d="m0 0v3l-6 9h-2v-3h2l1-4h2l1-4z" fill="#909CB2"/>
<path transform="translate(1230,610)" d="m0 0 2 1-10 8-4 1 4-5h2l1-3z" fill="#BDC5D3"/>
<path transform="translate(936,334)" d="m0 0 3 1-1 2-5 3h-4l2-4z" fill="#FEF9C8"/>
<path transform="translate(672,579)" d="m0 0h2l-2 11h-4l3-9z" fill="#FCE3A0"/>
<path transform="translate(1399,716)" d="m0 0h2l-1 5-2 5-4-2 2-5 2-1z" fill="#35211A"/>
<path transform="translate(741,488)" d="m0 0v3l-5 7-3 1 2-5 4-5z" fill="#FFF7C3"/>
<path transform="translate(736,458)" d="m0 0 2 1-4 5h-2v2l-6 2 4-5z" fill="#48180C"/>
<path transform="translate(1171,995)" d="m0 0h6l-2 3-8 1 1-3z" fill="#8192AF"/>
<path transform="translate(1121,632)" d="m0 0 4 2 2 6-5-2-2-1z" fill="#100508"/>
<path transform="translate(984,581)" d="m0 0h12v2l-11 1z" fill="#FFF3B5"/>
<path transform="translate(1153,951)" d="m0 0 2 1-2 2 1 2h-9l2-3z" fill="#8192B0"/>
<path transform="translate(749,908)" d="m0 0 5 1 3 2 3 5-5-2-3-2v-2l-3-1z" fill="#77839D"/>
<path transform="translate(743,798)" d="m0 0h6l-1 5h-4z" fill="#FEF0AA"/>
<path transform="translate(1123,679)" d="m0 0 7 1 5-1v2l-3 1 2 2-4 1v-3l-7-1z" fill="#63708C"/>
<path transform="translate(698,567)" d="m0 0 2 2-3 9-2-1 1-7z" fill="#FFFACC"/>
</svg>
