<?xml version="1.0" encoding="UTF-8"?>
<svg version="1.1" viewBox="0 0 2048 1410" width="790" height="544" xmlns="http://www.w3.org/2000/svg">
<path transform="translate(23)" d="m0 0h2025v1350h-2025z" fill="none"/>
<path transform="translate(1486,332)" d="m0 0h21l13 5 9 5 12 11 8 14 3 13v8l-2 11-5 10-9 10-16 13-4 8-5 21-6 10-6 4-5 2h-8l-1 12-4 17-8 22-10 19-6 8-2 2-5-1-2-2 1-9 7-15 8-20 6-25 1-13-1-3-3-1-6-9-4 1-5-1-8 7-3 1-1 3-6 3h-2v2l-3 1-6-3 4-6-19 13-13 10-14 10-21 16-36 26-13 10-19 14-18 14-11 8-15 11h-2l-5-10-8-10-10-7 4-4 16-12 19-14 14-11 13-10 9-7 15-12 17-13 14-11 17-13 15-12 11-8 1-2-5-1v-4l6-3 4-1-1-3-4 1-2 2-4 1-3 3v-3l11-9 20-16 14-11 1-1 2-13 4-9 4-5 11-8h2v-2l4-4h2l2-5 9-9h2v-2l12-7z" fill="#351811"/>
<path transform="translate(1444,400)" d="m0 0 10 1 9 5 6 7 4 10v9l-7 7-19 13-16 12-17 12-11 8-18 13-21 16-18 13-19 14-24 18-19 14-17 13-16 12-5 2-5-10-8-10-10-7 4-4 16-12 19-14 14-11 13-10 9-7 15-12 17-13 14-11 17-13 15-12 13-10 18-14 13-11 17-13z" fill="#3975B6"/>
<path transform="translate(1444,400)" d="m0 0 10 1 6 3 1 4-12 9-9 8-17 13-14 11-10 8-16 13-13 10-18 14-39 30-18 14-12 9-18 13-16 12-12 8-4-1-10-7 4-4 16-12 19-14 14-11 13-10 9-7 15-12 17-13 14-11 17-13 15-12 13-10 18-14 13-11 17-13z" fill="#FCFCFC"/>
<path transform="translate(1502,757)" d="m0 0 5 1 2 2-1 8-6 16-10 19-6 11-9 14-7 10-3 5h-2l-2 5-7 9h-2l-2 4-7 9-29 29h-2l-1 3-11 9-6 5h-2v2l-17 12-17 11-12 7-13 6-5-1-2-3 1-5 9-6 11-7 13-9 11-8 14-11 8-7h2v-2l11-9 20-20 9-11 7-7 12-16 11-15 10-15 5-9 9-16 7-16z" fill="#361911"/>
<path transform="translate(1577,624)" d="m0 0h7l3 3 1 7v14l-3 26-5 24-7 24-10 27-16 33-6 10-6 11-9 13-7 9-6 8h-2l-2 4-8 7-2 1h-7l-1-1v-5l10-14 11-15 8-13 6-9 6-11 8-16 9-20 5-12 11-33 5-22 4-27 2-22z" fill="#381A12"/>
<path transform="translate(1471,681)" d="m0 0h2l4 8 1 5v14l-4 20-7 21-8 17-8 15-14 22-16 21-15 16-6 6h-2v2l-13 10-12 7h-6l-2-5 6-7 11-9 12-12 7-8 12-14 8-11 9-13 13-22 9-19 6-16 8-26z" fill="#361912"/>
<path transform="translate(1491,346)" d="m0 0h14l12 4 10 7 6 9 4 10 1 4v10l-3 9-8 10-12 9-2-1-1-16-3-10-4-8-6-8-5-3v-2l-6-2-10-3-12-2 1-3h2l2-4 10-7 4-2z" fill="#3A74B4"/>
<path transform="translate(1505,509)" d="m0 0h5l2 3v11l-4 16-5 14-7 14-10 16-9 11-13 13-4 2h-6l-2-4 7-8 13-16 4-6 8-14 8-16 5-13 7-22z" fill="#381B14"/>
<path transform="translate(1459,372)" d="m0 0h14l12 4 8 5 5 5 6 9 2 6 1 13-2 9-7 7-5 1-1-13-3-10-6-11-7-7-12-6-3-1h-16v-2l10-7z" fill="#3A71AE"/>
<path transform="translate(1491,346)" d="m0 0h14l12 4 8 5v2l-26-1 3 9 3 3v4h-8l-14-6-17-3 1-3h2l2-4 10-7 4-2z" fill="#FCFCFC"/>
<path transform="translate(1452,458)" d="m0 0 5 1-5 5-13 10-14 10-18 13-10 7v7l-12-4 1-3 7-2 2-7h-3-3l-1 3-6 3-1 2-5 1 5-5 19-14 18-13 7-5h2l-2 4-1 1 6 3h2v-2l8-4 5-5z" fill="#201111"/>
<path transform="translate(1453,395)" d="m0 0 7 1 6 3 9 10 4 8 1 4 1 16 5-2 4 1h5l2 3-4 2-5 9-5 5-2 4v-4h-2l-1-8 3-8h-2l-1-12h-3v2h-2l-3-12-6-9-4-3-10-4v-2h-5l2-3z" fill="#221211"/>
<path transform="translate(1462,394)" d="m0 0h6l6 4 6 7 5 10 1 4v13l-3 5-3 1-1-17-4-10-7-9-7-6z" fill="#444C63"/>
<path transform="translate(1501,439)" d="m0 0h2l-3 14-3 6-3 3-9 1-2-3v-6l6-7 4-6z" fill="#FBFBFC"/>
<path transform="translate(1459,372)" d="m0 0h14l8 3 1 2-9 4-1 5-5-1-6-2h-16v-2l10-7z" fill="#FCFCFC"/>
<path transform="translate(1479,366)" d="m0 0h7l8 4v2l5 2 7 9-1 2h-3l4 8 3 5-3 4-7-14-3-3v-2l-4-2-7-4 1-5-1-3h-3v-2z" fill="#1F1010"/>
<path transform="translate(1479,428)" d="m0 0h1l1 9 5-2 4 1h5l2 3-4 2-5 9-5 5-2 4v-4h-2l-1-8 3-8h-2z" fill="#1E1010"/>
<path transform="translate(1532,418)" d="m0 0m-1 1 1 3-12 10-4 6-3-1 1-5h2v-2l3-3h2v-2l6-5z" fill="#211213"/>
<path transform="translate(1452,458)" d="m0 0 5 1-5 5-10 8-4-1 10-10z" fill="#211517"/>
<path transform="translate(1485,400)" d="m0 0 3 4 3 6-1 4-6-4-1-5h2z" fill="#1F0F0E"/>
<path transform="translate(1481,367)" d="m0 0 1 2h3v2l2 1-1 4-9-2 2-1v-4h2z" fill="#341813"/>
<path transform="translate(1442,399)" d="m0 0h8v1l-8 2-9 7-1-4 6-4z" fill="#2E2933"/>
<path transform="translate(1473,430)" d="m0 0 1 3-1 3-3 1-1 2h-2v2l-3 2-4-1 9-7z" fill="#1D0D0D"/>
<path transform="translate(1458,383)" d="m0 0h6l1 2-3 3-5-1-2-2z" fill="#231618"/>
</svg>
